<svg width="32" height="32" viewBox="0 0 32 32" fill="none" xmlns="http://www.w3.org/2000/svg">
<path d="M23.46 14.5758C25.5964 14.5758 27.3295 12.8439 27.3295 10.7074C27.3295 8.571 25.5964 6.83911 23.46 6.83911" stroke="#267D3F" stroke-width="1.5" stroke-linecap="round" stroke-linejoin="round"/>
<path d="M25.2388 18.7795C25.8768 18.8235 26.5111 18.914 27.1357 19.0545C28.0034 19.2244 29.0472 19.5801 29.4188 20.3587C29.6559 20.8573 29.6559 21.4379 29.4188 21.9378C29.0484 22.7163 28.0034 23.0708 27.1357 23.2492" stroke="#267D3F" stroke-width="1.5" stroke-linecap="round" stroke-linejoin="round"/>
<path d="M8.38665 14.5758C6.2502 14.5758 4.51709 12.8439 4.51709 10.7074C4.51709 8.571 6.2502 6.83911 8.38665 6.83911" stroke="#267D3F" stroke-width="1.5" stroke-linecap="round" stroke-linejoin="round"/>
<path d="M6.60777 18.7795C5.96977 18.8235 5.33544 18.914 4.71088 19.0545C3.84311 19.2244 2.79933 19.5801 2.42899 20.3587C2.19066 20.8573 2.19066 21.4379 2.42899 21.9378C2.79811 22.7163 3.84311 23.0708 4.71088 23.2492" stroke="#267D3F" stroke-width="1.5" stroke-linecap="round" stroke-linejoin="round"/>
<path fill-rule="evenodd" clip-rule="evenodd" d="M15.917 19.6125C20.2461 19.6125 23.9445 20.2677 23.9445 22.8893C23.9445 25.5098 20.2705 26.1893 15.917 26.1893C11.5866 26.1893 7.8894 25.5342 7.8894 22.9125C7.8894 20.2909 11.5634 19.6125 15.917 19.6125Z" stroke="#267D3F" stroke-width="1.5" stroke-linecap="round" stroke-linejoin="round"/>
<path fill-rule="evenodd" clip-rule="evenodd" d="M15.917 15.8731C13.0619 15.8731 10.7727 13.5839 10.7727 10.7276C10.7727 7.87247 13.0619 5.58325 15.917 5.58325C18.7721 5.58325 21.0614 7.87247 21.0614 10.7276C21.0614 13.5839 18.7721 15.8731 15.917 15.8731Z" stroke="#267D3F" stroke-width="1.5" stroke-linecap="round" stroke-linejoin="round"/>
</svg>
