<svg width="80" height="80" viewBox="0 0 80 80" fill="none" xmlns="http://www.w3.org/2000/svg">
<circle cx="40" cy="40" r="40" fill="#E9F9EE" fill-opacity="0.6"/>
<path d="M41.5 35.5H48.25L47.5 38.5H41.5V52H38.5V38.5H32.5V35.5H38.5V32.692C38.5 30.0175 38.779 29.047 39.301 28.069C39.8125 27.1027 40.6027 26.3125 41.569 25.801C42.547 25.279 43.5175 25 46.192 25C46.975 25 47.662 25.075 48.25 25.225V28H46.192C44.206 28 43.6015 28.117 42.985 28.447C42.529 28.69 42.19 29.029 41.947 29.485C41.617 30.1015 41.5 30.706 41.5 32.692V35.5Z" fill="#227439"/>
</svg>
