<svg width="40" height="40" viewBox="0 0 40 40" fill="none" xmlns="http://www.w3.org/2000/svg">
<circle cx="20" cy="20" r="20" fill="#E9F9EE" fill-opacity="0.6"/>
<g clip-path="url(#clip0_125_259)">
<path d="M20 17.25C19.4033 17.25 18.831 17.4871 18.409 17.909C17.9871 18.331 17.75 18.9033 17.75 19.5C17.75 20.0967 17.9871 20.669 18.409 21.091C18.831 21.5129 19.4033 21.75 20 21.75C20.5967 21.75 21.169 21.5129 21.591 21.091C22.0129 20.669 22.25 20.0967 22.25 19.5C22.25 18.9033 22.0129 18.331 21.591 17.909C21.169 17.4871 20.5967 17.25 20 17.25ZM20 15.75C20.9946 15.75 21.9484 16.1451 22.6517 16.8483C23.3549 17.5516 23.75 18.5054 23.75 19.5C23.75 20.4946 23.3549 21.4484 22.6517 22.1517C21.9484 22.8549 20.9946 23.25 20 23.25C19.0054 23.25 18.0516 22.8549 17.3483 22.1517C16.6451 21.4484 16.25 20.4946 16.25 19.5C16.25 18.5054 16.6451 17.5516 17.3483 16.8483C18.0516 16.1451 19.0054 15.75 20 15.75ZM24.875 15.5625C24.875 15.8111 24.7762 16.0496 24.6004 16.2254C24.4246 16.4012 24.1861 16.5 23.9375 16.5C23.6889 16.5 23.4504 16.4012 23.2746 16.2254C23.0988 16.0496 23 15.8111 23 15.5625C23 15.3139 23.0988 15.0754 23.2746 14.8996C23.4504 14.7238 23.6889 14.625 23.9375 14.625C24.1861 14.625 24.4246 14.7238 24.6004 14.8996C24.7762 15.0754 24.875 15.3139 24.875 15.5625ZM20 13.5C18.1445 13.5 17.8415 13.5053 16.9783 13.5435C16.3903 13.5713 15.9957 13.65 15.6297 13.7925C15.3043 13.9185 15.0695 14.0692 14.8197 14.3197C14.585 14.5465 14.4045 14.8234 14.2917 15.1297C14.1492 15.4972 14.0705 15.891 14.0435 16.4783C14.0045 17.3063 14 17.5957 14 19.5C14 21.3555 14.0053 21.6585 14.0435 22.5217C14.0713 23.109 14.15 23.5043 14.2917 23.8695C14.4193 24.1958 14.5693 24.4305 14.8183 24.6795C15.071 24.9315 15.3057 25.0822 15.6283 25.2067C15.9987 25.35 16.3933 25.4295 16.9783 25.4565C17.8063 25.4955 18.0957 25.5 20 25.5C21.8555 25.5 22.1585 25.4948 23.0217 25.4565C23.6082 25.4288 24.0035 25.35 24.3695 25.2083C24.6943 25.0815 24.9305 24.9307 25.1795 24.6818C25.4323 24.429 25.583 24.1943 25.7075 23.8717C25.85 23.502 25.9295 23.1067 25.9565 22.5217C25.9955 21.6937 26 21.4043 26 19.5C26 17.6445 25.9948 17.3415 25.9565 16.4783C25.9288 15.8918 25.85 15.4957 25.7075 15.1297C25.5945 14.8238 25.4143 14.547 25.1803 14.3197C24.9536 14.0849 24.6766 13.9044 24.3702 13.7917C24.0027 13.6492 23.6082 13.5705 23.0217 13.5435C22.1937 13.5045 21.9043 13.5 20 13.5ZM20 12C22.0378 12 22.292 12.0075 23.0915 12.045C23.8903 12.0825 24.434 12.2078 24.9125 12.3938C25.4075 12.5843 25.8245 12.8422 26.2415 13.2585C26.6229 13.6334 26.918 14.0869 27.1063 14.5875C27.2915 15.0652 27.4175 15.6097 27.455 16.4085C27.4903 17.208 27.5 17.4622 27.5 19.5C27.5 21.5378 27.4925 21.792 27.455 22.5915C27.4175 23.3903 27.2915 23.934 27.1063 24.4125C26.9185 24.9133 26.6233 25.367 26.2415 25.7415C25.8665 26.1227 25.413 26.4178 24.9125 26.6063C24.4347 26.7915 23.8903 26.9175 23.0915 26.955C22.292 26.9903 22.0378 27 20 27C17.9622 27 17.708 26.9925 16.9085 26.955C16.1097 26.9175 15.566 26.7915 15.0875 26.6063C14.5867 26.4184 14.1331 26.1232 13.7585 25.7415C13.3771 25.3666 13.0819 24.9131 12.8938 24.4125C12.7078 23.9347 12.5825 23.3903 12.545 22.5915C12.5097 21.792 12.5 21.5378 12.5 19.5C12.5 17.4622 12.5075 17.208 12.545 16.4085C12.5825 15.609 12.7078 15.066 12.8938 14.5875C13.0814 14.0866 13.3766 13.633 13.7585 13.2585C14.1333 12.8769 14.5868 12.5818 15.0875 12.3938C15.566 12.2078 16.109 12.0825 16.9085 12.045C17.708 12.0097 17.9622 12 20 12Z" fill="#227439"/>
</g>
<defs>
<clipPath id="clip0_125_259">
<rect width="18" height="18" fill="white" transform="translate(11 10.5)"/>
</clipPath>
</defs>
</svg>
