<svg width="40" height="40" viewBox="0 0 40 40" fill="none" xmlns="http://www.w3.org/2000/svg">
<circle cx="20" cy="20" r="20" fill="#E9F9EE" fill-opacity="0.6"/>
<path d="M20.75 17.75H24.125L23.75 19.25H20.75V26H19.25V19.25H16.25V17.75H19.25V16.346C19.25 15.0087 19.3895 14.5235 19.6505 14.0345C19.9063 13.5514 20.3014 13.1563 20.7845 12.9005C21.2735 12.6395 21.7587 12.5 23.096 12.5C23.4875 12.5 23.831 12.5375 24.125 12.6125V14H23.096C22.103 14 21.8007 14.0585 21.4925 14.2235C21.2645 14.345 21.095 14.5145 20.9735 14.7425C20.8085 15.0507 20.75 15.353 20.75 16.346V17.75Z" fill="#227439"/>
</svg>
