<svg width="80" height="80" viewBox="0 0 80 80" fill="none" xmlns="http://www.w3.org/2000/svg">
<circle cx="40" cy="40" r="40" fill="#E9F9EE" fill-opacity="0.6"/>
<path d="M40 34.5C38.8065 34.5 37.6619 34.9741 36.818 35.818C35.9741 36.6619 35.5 37.8065 35.5 39C35.5 40.1935 35.9741 41.3381 36.818 42.182C37.6619 43.0259 38.8065 43.5 40 43.5C41.1935 43.5 42.3381 43.0259 43.182 42.182C44.0259 41.3381 44.5 40.1935 44.5 39C44.5 37.8065 44.0259 36.6619 43.182 35.818C42.3381 34.9741 41.1935 34.5 40 34.5ZM40 31.5C41.9891 31.5 43.8968 32.2902 45.3033 33.6967C46.7098 35.1032 47.5 37.0109 47.5 39C47.5 40.9891 46.7098 42.8968 45.3033 44.3033C43.8968 45.7098 41.9891 46.5 40 46.5C38.0109 46.5 36.1032 45.7098 34.6967 44.3033C33.2902 42.8968 32.5 40.9891 32.5 39C32.5 37.0109 33.2902 35.1032 34.6967 33.6967C36.1032 32.2902 38.0109 31.5 40 31.5ZM49.75 31.125C49.75 31.6223 49.5525 32.0992 49.2008 32.4508C48.8492 32.8025 48.3723 33 47.875 33C47.3777 33 46.9008 32.8025 46.5492 32.4508C46.1975 32.0992 46 31.6223 46 31.125C46 30.6277 46.1975 30.1508 46.5492 29.7992C46.9008 29.4475 47.3777 29.25 47.875 29.25C48.3723 29.25 48.8492 29.4475 49.2008 29.7992C49.5525 30.1508 49.75 30.6277 49.75 31.125ZM40 27C36.289 27 35.683 27.0105 33.9565 27.087C32.7805 27.1425 31.9915 27.3 31.2595 27.585C30.6085 27.837 30.139 28.1385 29.6395 28.6395C29.17 29.0931 28.809 29.6469 28.5835 30.2595C28.2985 30.9945 28.141 31.782 28.087 32.9565C28.009 34.6125 28 35.1915 28 39C28 42.711 28.0105 43.317 28.087 45.0435C28.1425 46.218 28.3 47.0085 28.5835 47.739C28.8385 48.3915 29.1385 48.861 29.6365 49.359C30.142 49.863 30.6115 50.1645 31.2565 50.4135C31.9975 50.7 32.7865 50.859 33.9565 50.913C35.6125 50.991 36.1915 51 40 51C43.711 51 44.317 50.9895 46.0435 50.913C47.2165 50.8575 48.007 50.7 48.739 50.4165C49.3885 50.163 49.861 49.8615 50.359 49.3635C50.8645 48.858 51.166 48.3885 51.415 47.7435C51.7 47.004 51.859 46.2135 51.913 45.0435C51.991 43.3875 52 42.8085 52 39C52 35.289 51.9895 34.683 51.913 32.9565C51.8575 31.7835 51.7 30.9915 51.415 30.2595C51.1889 29.6475 50.8286 29.0939 50.3605 28.6395C49.9071 28.1698 49.3533 27.8088 48.7405 27.5835C48.0055 27.2985 47.2165 27.141 46.0435 27.087C44.3875 27.009 43.8085 27 40 27ZM40 24C44.0755 24 44.584 24.015 46.183 24.09C47.7805 24.165 48.868 24.4155 49.825 24.7875C50.815 25.1685 51.649 25.6845 52.483 26.517C53.2457 27.2668 53.8359 28.1739 54.2125 29.175C54.583 30.1305 54.835 31.2195 54.91 32.817C54.9805 34.416 55 34.9245 55 39C55 43.0755 54.985 43.584 54.91 45.183C54.835 46.7805 54.583 47.868 54.2125 48.825C53.837 49.8267 53.2467 50.7339 52.483 51.483C51.7329 52.2455 50.826 52.8356 49.825 53.2125C48.8695 53.583 47.7805 53.835 46.183 53.91C44.584 53.9805 44.0755 54 40 54C35.9245 54 35.416 53.985 33.817 53.91C32.2195 53.835 31.132 53.583 30.175 53.2125C29.1735 52.8367 28.2663 52.2464 27.517 51.483C26.7541 50.7333 26.1639 49.8262 25.7875 48.825C25.4155 47.8695 25.165 46.7805 25.09 45.183C25.0195 43.584 25 43.0755 25 39C25 34.9245 25.015 34.416 25.09 32.817C25.165 31.218 25.4155 30.132 25.7875 29.175C26.1629 28.1733 26.7532 27.266 27.517 26.517C28.2665 25.7538 29.1736 25.1636 30.175 24.7875C31.132 24.4155 32.218 24.165 33.817 24.09C35.416 24.0195 35.9245 24 40 24Z" fill="#227439"/>
</svg>
